<svg id="Capa_1" data-name="Capa 1" xmlns="http://www.w3.org/2000/svg" viewBox="0 0 149.93 120.71"><title>Ayuda</title><path d="M49.87,0c11.2,0,22.39-.06,33.58,0C89.82.05,95,2.57,97.84,8.45a19.15,19.15,0,0,1,1.68,7.89c.16,14.52.08,29,.08,43.57,0,10.37-6.35,16.73-16.78,16.75-11.28,0-22.56-.06-33.83.09a9.06,9.06,0,0,0-4.87,1.65c-5.55,4-10.9,8.23-16.41,12.26a4.43,4.43,0,0,1-3.35.89c-.64-.2-1-2-1.08-3a91.46,91.46,0,0,1,0-9.22c.09-2-.56-2.59-2.6-2.69-3.71-.18-7.63-.15-11.06-1.36C3.37,73.07.21,68,.14,61.41,0,46,0,30.48.1,15,.17,6.46,7.1,0,16,0Zm1.44,23.4h4.35c1.88,0,3.47.45,4,2.46a4,4,0,0,1-2,5c-2.84,1.57-5.5,3.47-8.4,4.9-3.52,1.73-4.33,4.49-3.93,8a4.35,4.35,0,0,0,4,4.24c2.24.28,3.81-.85,4.78-3a7.61,7.61,0,0,1,2.48-3c2.58-1.82,5.46-3.22,7.94-5.15A12.38,12.38,0,0,0,68.6,23.24C66.87,18,62.48,14.3,57.15,14.06a115.72,115.72,0,0,0-11.78,0c-6.32.36-11.63,6.1-11.75,12.42A4.71,4.71,0,0,0,37.7,31.6c2.15.34,4.38-1.36,5-3.82,1.07-4.17,1.33-4.38,5.53-4.38ZM50,64.6a6,6,0,1,0,1.38-11.92,6.37,6.37,0,0,0-1.38,0,5.78,5.78,0,0,0-6.13,5.39c0,.13,0,.26,0,.39a6.12,6.12,0,0,0,6.08,6.14Z" transform="translate(-0.03 0.03)"/><path d="M58,83.4c7.09,0,13.74.09,20.39,0,5.33-.1,10.57-.82,15.16-3.9,7.17-4.81,10.54-11.71,10.67-20.18.14-9,0-17.94,0-26.91v-3h29.9c9,0,15.6,6.24,15.7,15.14q.27,22.94,0,45.87c-.13,9.32-6.87,15.49-16.22,15.5h-6.86v9.51a13.58,13.58,0,0,1,0,2.55c-.19.94-.44,2.37-1,2.6a3.71,3.71,0,0,1-3-.56c-5.74-4.15-11.33-8.51-17.1-12.61a9.34,9.34,0,0,0-4.87-1.67c-8.62-.16-17.25-.06-25.88-.08-10.79,0-16.83-6.08-16.84-16.83Z" transform="translate(-0.03 0.03)"/></svg>