<svg id="Capa_1" data-name="Capa 1" xmlns="http://www.w3.org/2000/svg" viewBox="0 0 150.26 119.97"><title>CompraCheck</title><path d="M64.39,107c.69,3.7,1.14,6.91,2,10,.18.68,1.72,1.4,2.64,1.41,9.38.11,18.76.07,28.14.07h2.18c0,3.4,0,6.45,0,9.51,0,1.79-1.28,1.43-2.29,1.43q-12.69,0-25.38,0c-3,0-6,0-9,0-3.64-.06-5.52-1.67-6.21-5.25L43.16,55A6.69,6.69,0,0,1,43,54c-.07-2.49-1-3.75-3.85-3.52a69.92,69.92,0,0,1-9,0c-3.37-.15-5.53-2.24-5.65-5.23a5.37,5.37,0,0,1,5.34-5.54c5.77-.22,11.56-.21,17.32,0a5.05,5.05,0,0,1,5.21,5.07c.14,2,1,2.27,2.71,2.26C65,47,74.84,47,84.73,47h64.32a18.55,18.55,0,0,1,3.25.19c5.38,1,7.94,5,6.51,10.25C157.3,63,155.7,68.51,154.12,74a86.25,86.25,0,0,0-2.42,8.65c-.43,2.48-1.65,2.57-3.65,2.24a40.65,40.65,0,0,0-26.27,4.21,41.12,41.12,0,0,0-16.52,15.67,4,4,0,0,1-4,2.21c-11.13-.08-22.27,0-33.41,0Z" transform="translate(-24.49 -39.53)"/><path d="M141.47,159.49a33.3,33.3,0,0,1-33.95-33.35c0-18.33,13-33.16,32.55-33.93,19.24-.76,34.58,13.93,34.68,33.54C174.84,144.39,161,158.88,141.47,159.49Zm-13.72-38.05c-1.22,1-2.82,1.75-3.23,2.9a4.75,4.75,0,0,0,.72,4c3,3.37,6.25,6.51,9.51,9.64a3.38,3.38,0,0,0,5.15,0q8.74-8.64,17.39-17.39c1.58-1.61,1.28-3.35-.17-4.91-1.77-1.91-4-1.73-6.35.56-4,3.91-8,7.83-11.93,11.84-1.09,1.1-1.88,1.11-2.91.06-1.46-1.49-2.91-3-4.48-4.38a33.88,33.88,0,0,0-3.69-2.37Z" transform="translate(-24.49 -39.53)"/><path d="M65.85,159.48a11.06,11.06,0,1,1,10.93-11.07A11,11,0,0,1,65.85,159.48Z" transform="translate(-24.49 -39.53)"/></svg>