<svg id="Capa_1" data-name="Capa 1" xmlns="http://www.w3.org/2000/svg" viewBox="0 0 150 150"><title>instagram</title><path d="M99.87,82a17.86,17.86,0,1,0,17.87,17.85A17.86,17.86,0,0,0,99.87,82Zm41.76-13.73A18.07,18.07,0,0,0,131.45,58.1c-7-2.78-23.78-2.16-31.58-2.16S75.35,55.3,68.29,58.1A18.07,18.07,0,0,0,58.11,68.28C55.34,75.31,56,92.07,56,99.86s-.62,24.53,2.17,31.59a18,18,0,0,0,10.18,10.18c7,2.78,23.77,2.15,31.58,2.15s24.52.65,31.57-2.15a18.07,18.07,0,0,0,10.18-10.18c2.8-7,2.15-23.79,2.15-31.59s.65-24.52-2.15-31.58ZM99.87,127.46a27.43,27.43,0,1,1,.07,0Zm28.55-49.91a6.41,6.41,0,1,1,6.4-6.41v0a6.41,6.41,0,0,1-6.39,6.41h0ZM158.93,25H41.07A16.08,16.08,0,0,0,25,41.07V158.93A16.08,16.08,0,0,0,41.07,175H158.93A16.08,16.08,0,0,0,175,158.93V41.07A16.08,16.08,0,0,0,158.93,25Zm-5.86,97c-.43,8.58-2.39,16.19-8.66,22.44s-13.86,8.24-22.43,8.65c-8.84.5-35.35.5-44.2,0-8.58-.43-16.15-2.39-22.43-8.65S47.1,130.53,46.7,122c-.5-8.84-.5-35.36,0-44.19.43-8.59,2.36-16.19,8.65-22.44s13.89-8.22,22.43-8.63c8.85-.5,35.36-.5,44.2,0,8.58.43,16.18,2.4,22.43,8.66s8.25,13.87,8.66,22.45C153.57,86.62,153.57,113.11,153.07,122Z" transform="translate(-25 -25)"/></svg>