<svg id="Capa_1" data-name="Capa 1" xmlns="http://www.w3.org/2000/svg" viewBox="0 0 150.02 129.14"><title>Menu</title><path d="M25,45.42a11.11,11.11,0,0,1,10.9-10H164.3A10.74,10.74,0,0,1,175,47a11.11,11.11,0,0,1-10.9,10H35.7A10.73,10.73,0,0,1,25,45.42ZM25,100A10.73,10.73,0,0,1,35.7,89.24H164.08a11.12,11.12,0,0,1,10.91,10,10.74,10.74,0,0,1-10.69,11.53H35.7A10.73,10.73,0,0,1,25,100Zm150,54.58a11.12,11.12,0,0,1-10.91,10H35.7a10.76,10.76,0,0,1,0-21.52H164.3A10.74,10.74,0,0,1,175,154.58Z" transform="translate(-24.99 -35.43)"/></svg>