<svg id="Capa_1" data-name="Capa 1" xmlns="http://www.w3.org/2000/svg" viewBox="0 0 150 150"><title>twitter</title><path d="M158.93,25H41.07A16.08,16.08,0,0,0,25,41.07V158.93A16.08,16.08,0,0,0,41.07,175H158.93A16.08,16.08,0,0,0,175,158.93V41.07A16.08,16.08,0,0,0,158.93,25ZM142.56,78.28c.06.93.06,1.9.06,2.84,0,29-22.1,62.48-62.47,62.48a62.25,62.25,0,0,1-33.72-9.84,46.39,46.39,0,0,0,5.29.26A44,44,0,0,0,79,124.65a22,22,0,0,1-20.52-15.24,23.44,23.44,0,0,0,9.91-.4A22,22,0,0,1,50.78,87.45v-.27A21.9,21.9,0,0,0,60.69,90,22,22,0,0,1,53.9,60.6a62.36,62.36,0,0,0,45.26,23,22,22,0,0,1,37.47-20.06,43.18,43.18,0,0,0,13.93-5.29,21.91,21.91,0,0,1-9.64,12.09,43.7,43.7,0,0,0,12.65-3.42A46.37,46.37,0,0,1,142.56,78.28Z" transform="translate(-25 -25)"/></svg>