<svg id="Capa_1" data-name="Capa 1" xmlns="http://www.w3.org/2000/svg" viewBox="0 0 1780.71 863.09"><title>logoTussy</title><path d="M982.17,761.09C959,801.78,916.08,823.47,879,815.72c-30.46-6.37-41.71-20.45-47.17-61.43-7.22,5.87-13,11.29-19.43,15.65-19,12.83-37,28-57.61,37.28C693.66,834.57,642.25,801.5,641,734.39s-.24-134.42-.33-201.64c-.06-39.8-3.64-42.39-39.06-29.06,17.71-53.37,96.36-65.74,122.08-42,12.31,11.39,20.93,32.68,21.52,49.82,2.39,69,.16,138.09,1.7,207.11.31,13.8,6.37,34.87,15.8,39.09,10.61,4.74,29.62-3.11,42.18-10.33,20.83-12,31.17-30.09,29.89-57-2.5-52.36-.64-104.93-.76-157.41-.1-39.73-3.94-42.53-39.08-29.43,15.48-45.67,88.84-70.94,124.33-40.08,11.8,10.27,18.94,31.67,19.39,48.22,2,74.53.86,149.14.92,223.72C939.65,776,942.51,778,982.17,761.09Z" transform="translate(-69.64 -108.46)"/><path d="M641.49,353,492.84,316.55V357.6q0,200.25,0,400.49c0,44.63-22,63.91-65.93,58.49-32.56-4-45.61-18.74-45.67-53.94q-.36-203-.11-406V324c-55.32,6.42-104.49,19-144.57,54.72-8.44,7.53-16.73,19.22-17.94,29.81-1.41,12.36,1.13,30.32,9.25,37,6.94,5.73,24.21-.81,36.86-2.33,10.1-1.22,24.76-7.84,29.2-3.56,8.09,7.8,13.65,21.82,13.92,33.4.62,25.8-20.82,45.27-50.15,49.8-30.51,4.71-63-12.51-73.59-41.63-14.89-41-6.07-79.48,23.46-110,18.1-18.69,40.65-37.54,64.72-45,49.56-15.45,101.06-29.12,152.53-32.87,62.07-4.53,125,1.1,187.42,4.53,11.54.64,28.59,9.38,32.21,18.64C649,328.35,642.51,344.46,641.49,353Z" transform="translate(-69.64 -108.46)"/><path d="M1505.32,487.63c38.88-52.9,127.21-50.67,156.49,7.76,27,54,46.42,111.85,67.87,168.51,10,26.5,17,54.16,26.92,86.27,5.5-9.42,9.64-14.72,11.94-20.72,31-80.94,54-162.68,24.14-249.57-5.64-16.43,3.49-24.62,18.17-27.2,15.74-2.76,33.34-4.93,37,16.89,2.7,16.15,2.8,32.95,2.24,49.4-4.49,132.6-41.52,253.83-130,355.35-50.54,58-111.5,99-192.64,97.16a88.56,88.56,0,0,1-39.25-10.29c-19.56-10.73-22-29-10.69-47.32,9.46-15.43,20.51-19.78,33.76-1.54,24.92,34.29,36.32,40.13,73.6,22,32.42-15.76,60.93-39.86,90.13-61.66,4.59-3.43,7-15.36,4.84-21.44-36.76-105.82-74.34-211.36-112-316.88-2.13-6-6.06-11.34-9.4-16.84C1540.67,488.21,1536.41,485.85,1505.32,487.63Z" transform="translate(-69.64 -108.46)"/><path d="M996.27,743.28c13.17,7.33,19.42,11.9,26.41,14.48,19.31,7.14,38.89,18.82,58.44,19,43.47.37,63.25-38.68,39.56-75.29-12.39-19.15-29.18-35.41-43.64-53.25-16.76-20.67-35.64-40.14-49.19-62.78-33.62-56.19-11.4-114.88,52.34-128,32.4-6.68,68.88-.68,102.15,6.2,25,5.17,38.28,27.57,37.85,54.65-.29,18-9.82,31.18-27.85,31.52-10.27.18-29.19-7.59-29.41-12.45-.59-12.78,6.94-25.93,13.5-45.81-5.3-11.51-31-19.88-52.47-9.85-19.21,8.95-27.21,34.53-13.43,54.42,12.94,18.69,29.89,34.71,45.71,51.29,15.23,16,32.15,30.34,46.77,46.8,32.48,36.56,45.87,78.25,23.7,124.62-22,46-64.57,57.34-110.76,58C1067.91,817.5,1020.24,789.47,996.27,743.28Z" transform="translate(-69.64 -108.46)"/><path d="M1453.29,499.49c-16-22.17-44.1-27.93-63.38-14.81-17.37,11.82-21.42,36.54-5.85,56.24,15.29,19.37,34.45,35.64,51,54.11,20.73,23.19,44.4,45,59.88,71.4,32.56,55.6,4.3,122.3-56.79,142.62-65.06,21.63-139.55-4.13-171-65.82,13.1,7.36,19.33,12.1,26.36,14.58,20.23,7.13,40.85,19,61.2,18.73,40.49-.47,59.35-38.26,38-72.76-12-19.34-28.72-35.73-43.13-53.6-17.27-21.43-37-41.46-51-64.86-33.68-56.12-11.31-114.85,52.47-127.94,32.41-6.66,68.81-.41,102.17,6.23,23.89,4.75,38,26.26,37.25,52-.28,9.81-6.09,25.95-12.55,27.73-13.16,3.65-34,5.11-41.79-2.56C1417.11,522.14,1439.41,511.51,1453.29,499.49Z" transform="translate(-69.64 -108.46)"/><path d="M551,108.88q222.06,0,444.11,0c7.36,0,14.85-.66,22,.58,3.49.6,6.36,4.84,9.52,7.44-3.21,3.47-5.86,8.82-9.76,10-5.94,1.76-12.74.7-19.17.7q-449.62,0-899.26,0c-5.52,0-11.3.93-16.47-.44-4.46-1.18-8.22-5-12.3-7.67,4.13-3.49,7.76-8.63,12.51-10.06,5.91-1.78,12.74-.53,19.18-.53Z" transform="translate(-69.64 -108.46)"/></svg>