<svg id="Capa_1" data-name="Capa 1" xmlns="http://www.w3.org/2000/svg" viewBox="0 0 1063.61 787.75"><defs><style>.cls-1{fill:#c1e4f0;stroke:#000;stroke-miterlimit:10;stroke-width:2px;}</style></defs><title>logoTu</title><path class="cls-1" d="M1011.24,723.24C985.58,768.33,938,792.37,897,783.78c-33.76-7.07-46.23-22.67-52.28-68.07-8,6.5-14.37,12.5-21.52,17.33-21,14.22-41,31.08-63.85,41.31-67.77,30.31-124.75-6.33-126.09-80.7s-.26-149-.37-223.45c-.06-44.11-4-47-43.28-32.21,19.68-59.13,106.78-72.85,135.28-46.51,13.65,12.62,23.19,36.21,23.85,55.21,2.65,76.43.18,153,1.89,229.52.34,15.28,7,38.64,17.51,43.31,11.76,5.25,32.82-3.44,46.74-11.44,23.09-13.28,34.55-33.35,33.12-63.19-2.76-58-.71-116.28-.84-174.44-.11-44-4.36-47.13-43.31-32.62,17.16-50.6,98.46-78.61,137.78-44.4,13.08,11.37,21,35.09,21.49,53.43,2.25,82.58,1,165.27,1,247.91C964.12,739.78,967.29,742,1011.24,723.24Z" transform="translate(1.67 1.03)"/><path class="cls-1" d="M633.71,271,469,230.61V719.92c-.05,49.45-24.41,70.81-73.07,64.81C359.83,780.28,345.37,764,345.3,725q-.41-225-.12-449.94v-36.1c-61.31,7.11-115.79,21-160.22,60.64-9.35,8.34-18.54,21.3-19.87,33-1.56,13.69,1.25,33.6,10.25,41,7.68,6.34,26.82-.9,40.84-2.59,11.2-1.34,27.45-8.68,32.37-3.94,9,8.64,15.12,24.18,15.42,37,.69,28.59-23.07,50.17-55.58,55.19-33.81,5.22-69.82-13.86-81.54-46.14-16.51-45.42-6.74-88.07,26-121.87,20-20.72,45-41.6,71.72-49.91,54.93-17.13,112-32.27,169-36.43,68.78-5,138.51,1.22,207.69,5,12.79.7,31.69,10.39,35.69,20.65C642,243.68,634.84,261.54,633.71,271Z" transform="translate(1.67 1.03)"/><path class="cls-1" d="M533.39.47h492.15c8.15,0,16.46-.72,24.39.64,3.87.67,7,5.37,10.55,8.25-3.56,3.84-6.5,9.77-10.81,11.05-6.58,1.95-14.12.77-21.25.77H31.88c-6.11,0-12.52,1-18.25-.49-5-1.31-9.12-5.55-13.63-8.5C4.57,8.32,8.6,2.62,13.86,1,20.41-1,28,.45,35.12.45Z" transform="translate(1.67 1.03)"/></svg>